<?xml version="1.0" standalone="no"?>
<!DOCTYPE svg PUBLIC "-//W3C//DTD SVG 20010904//EN"
 "http://www.w3.org/TR/2001/REC-SVG-20010904/DTD/svg10.dtd">
<svg version="1.0" xmlns="http://www.w3.org/2000/svg"
 width="46.000000pt" height="48.000000pt" viewBox="0 0 46.000000 48.000000"
 preserveAspectRatio="xMidYMid meet">

<g transform="translate(0.000000,48.000000) scale(0.100000,-0.100000)"
fill="#000000" stroke="none">
<path d="M78 393 c-21 -21 -44 -55 -53 -75 -42 -103 9 -238 91 -238 11 0 6 9
-14 30 -32 31 -58 92 -47 110 3 5 13 10 21 10 18 0 18 37 -1 56 -13 14 -13 19
0 44 8 15 26 36 40 47 18 13 24 24 19 36 -9 24 -15 22 -56 -20z"/>
<path d="M324 416 c-3 -9 9 -30 30 -51 34 -34 50 -85 26 -85 -5 0 -10 -11 -10
-25 0 -16 6 -25 15 -25 39 0 23 -65 -28 -118 -33 -34 -29 -39 21 -21 55 19 86
122 62 208 -6 25 -28 61 -52 87 -43 47 -55 53 -64 30z"/>
<path d="M128 273 c-26 -4 -41 -33 -18 -33 5 0 28 -16 50 -36 29 -27 42 -47
46 -75 5 -29 11 -39 25 -39 14 0 19 7 19 30 0 33 56 104 91 115 32 10 22 32
-18 39 -40 6 -150 6 -195 -1z m130 -34 c3 -28 -16 -43 -43 -33 -15 6 -21 45
-8 58 16 16 48 1 51 -25z"/>
</g>
</svg>
